<mxfile host="app.diagrams.net" agent="Mozilla/5.0 (Windows NT 10.0; Win64; x64) AppleWebKit/537.36 (KHTML, like Gecko) Chrome/141.0.0.0 Safari/537.36 Edg/141.0.0.0" version="28.2.8">
  <diagram name="Seite-1" id="cxaq_f12dgWrjIev_EsA">
    <mxGraphModel dx="407" dy="260" grid="1" gridSize="10" guides="1" tooltips="1" connect="1" arrows="1" fold="1" page="1" pageScale="1" pageWidth="827" pageHeight="1169" math="0" shadow="0">
      <root>
        <mxCell id="0" />
        <mxCell id="1" parent="0" />
        <mxCell id="r30szUmzQDBI5gyVfzxu-1" value="&lt;font style=&quot;font-size: 9px; color: light-dark(rgb(0, 0, 0), rgb(0, 0, 0));&quot;&gt;satisfy&lt;/font&gt;" style="whiteSpace=wrap;html=1;aspect=fixed;fillColor=light-dark(#FFFFFF,#B3B3B3);perimeterSpacing=0;rounded=1;arcSize=6;" parent="1" vertex="1">
          <mxGeometry x="280" y="400" width="80" height="80" as="geometry" />
        </mxCell>
        <mxCell id="r30szUmzQDBI5gyVfzxu-2" value="&lt;font style=&quot;font-size: 9px;&quot;&gt;intensively&lt;/font&gt;&lt;div&gt;&lt;span style=&quot;font-size: 9px; background-color: transparent; color: light-dark(rgb(0, 0, 0), rgb(255, 255, 255));&quot;&gt;care for&lt;/span&gt;&lt;/div&gt;" style="whiteSpace=wrap;html=1;aspect=fixed;fillColor=light-dark(#FFFFFF,#999999);rounded=1;arcSize=6;" parent="1" vertex="1">
          <mxGeometry x="360" y="400" width="80" height="80" as="geometry" />
        </mxCell>
        <mxCell id="r30szUmzQDBI5gyVfzxu-3" value="&lt;font style=&quot;font-size: 9px; color: light-dark(rgb(0, 0, 0), rgb(0, 0, 0));&quot;&gt;observe&amp;nbsp;&lt;/font&gt;&lt;div&gt;&lt;font style=&quot;font-size: 9px; color: light-dark(rgb(0, 0, 0), rgb(0, 0, 0));&quot;&gt;(minimum effort)&lt;/font&gt;&lt;/div&gt;" style="whiteSpace=wrap;html=1;aspect=fixed;fillColor=light-dark(#FFFFFF,#E6E6E6);rounded=1;arcSize=6;" parent="1" vertex="1">
          <mxGeometry x="280" y="480" width="80" height="80" as="geometry" />
        </mxCell>
        <mxCell id="r30szUmzQDBI5gyVfzxu-4" value="&lt;font style=&quot;font-size: 9px; color: light-dark(rgb(0, 0, 0), rgb(0, 0, 0));&quot;&gt;inform&lt;/font&gt;&lt;div&gt;&lt;span style=&quot;font-size: 9px; background-color: transparent;&quot;&gt;&lt;font style=&quot;color: light-dark(rgb(0, 0, 0), rgb(0, 0, 0));&quot;&gt;&amp;amp; involve&lt;/font&gt;&lt;/span&gt;&lt;/div&gt;" style="whiteSpace=wrap;html=1;aspect=fixed;fillColor=light-dark(#FFFFFF,#B3B3B3);rounded=1;arcSize=6;" parent="1" vertex="1">
          <mxGeometry x="360" y="480" width="80" height="80" as="geometry" />
        </mxCell>
        <mxCell id="r30szUmzQDBI5gyVfzxu-5" value="" style="endArrow=none;html=1;rounded=0;exitX=0;exitY=1;exitDx=0;exitDy=0;strokeColor=light-dark(#FFFFFF,#FFFFFF);" parent="1" source="r30szUmzQDBI5gyVfzxu-3" edge="1">
          <mxGeometry width="50" height="50" relative="1" as="geometry">
            <mxPoint x="480" y="550" as="sourcePoint" />
            <mxPoint x="460" y="560" as="targetPoint" />
          </mxGeometry>
        </mxCell>
        <mxCell id="r30szUmzQDBI5gyVfzxu-7" value="" style="endArrow=none;html=1;rounded=0;strokeColor=light-dark(#000000,#FFFFFF);exitX=0;exitY=1;exitDx=0;exitDy=0;" parent="1" source="r30szUmzQDBI5gyVfzxu-3" edge="1">
          <mxGeometry width="50" height="50" relative="1" as="geometry">
            <mxPoint x="640" y="650" as="sourcePoint" />
            <mxPoint x="280" y="380" as="targetPoint" />
          </mxGeometry>
        </mxCell>
        <mxCell id="r30szUmzQDBI5gyVfzxu-8" value="&lt;font style=&quot;font-size: 11px;&quot;&gt;Interest&lt;/font&gt;" style="text;html=1;whiteSpace=wrap;strokeColor=none;fillColor=none;align=center;verticalAlign=middle;rounded=0;" parent="1" vertex="1">
          <mxGeometry x="330" y="560" width="60" height="30" as="geometry" />
        </mxCell>
        <mxCell id="r30szUmzQDBI5gyVfzxu-9" value="&lt;font style=&quot;font-size: 11px;&quot;&gt;Influence / Power&lt;/font&gt;" style="text;html=1;whiteSpace=wrap;strokeColor=none;fillColor=none;align=center;verticalAlign=middle;rounded=0;rotation=90;" parent="1" vertex="1">
          <mxGeometry x="210" y="460" width="110" height="30" as="geometry" />
        </mxCell>
        <mxCell id="r30szUmzQDBI5gyVfzxu-10" value="&lt;font style=&quot;font-size: 9px;&quot;&gt;high&lt;/font&gt;" style="text;html=1;whiteSpace=wrap;strokeColor=none;fillColor=none;align=center;verticalAlign=middle;rounded=0;" parent="1" vertex="1">
          <mxGeometry x="410" y="560" width="30" height="20" as="geometry" />
        </mxCell>
        <mxCell id="r30szUmzQDBI5gyVfzxu-11" value="&lt;font style=&quot;font-size: 9px;&quot;&gt;low&lt;/font&gt;" style="text;html=1;whiteSpace=wrap;strokeColor=none;fillColor=none;align=center;verticalAlign=middle;rounded=0;" parent="1" vertex="1">
          <mxGeometry x="280" y="560" width="30" height="20" as="geometry" />
        </mxCell>
        <mxCell id="r30szUmzQDBI5gyVfzxu-12" value="&lt;font style=&quot;font-size: 9px;&quot;&gt;low&lt;/font&gt;" style="text;html=1;whiteSpace=wrap;strokeColor=none;fillColor=none;align=center;verticalAlign=middle;rounded=0;rotation=90;" parent="1" vertex="1">
          <mxGeometry x="255" y="535" width="30" height="20" as="geometry" />
        </mxCell>
        <mxCell id="r30szUmzQDBI5gyVfzxu-13" value="&lt;font style=&quot;font-size: 9px;&quot;&gt;high&lt;/font&gt;" style="text;html=1;whiteSpace=wrap;strokeColor=none;fillColor=none;align=center;verticalAlign=middle;rounded=0;rotation=90;" parent="1" vertex="1">
          <mxGeometry x="255" y="405" width="30" height="20" as="geometry" />
        </mxCell>
        <mxCell id="QTDSs0XTfjrRyN60iktF-1" value="&lt;font style=&quot;font-size: 8px;&quot;&gt;1&lt;/font&gt;" style="text;html=1;whiteSpace=wrap;strokeColor=none;fillColor=default;align=center;verticalAlign=middle;rounded=1;arcSize=50100;" vertex="1" parent="1">
          <mxGeometry x="394.5" y="410" width="10" height="10" as="geometry" />
        </mxCell>
        <mxCell id="QTDSs0XTfjrRyN60iktF-2" value="&lt;font style=&quot;font-size: 8px;&quot;&gt;2&lt;/font&gt;" style="text;html=1;whiteSpace=wrap;strokeColor=none;fillColor=default;align=center;verticalAlign=middle;rounded=1;arcSize=50100;" vertex="1" parent="1">
          <mxGeometry x="379" y="437" width="10" height="10" as="geometry" />
        </mxCell>
        <mxCell id="QTDSs0XTfjrRyN60iktF-3" value="&lt;font style=&quot;font-size: 8px;&quot;&gt;4&lt;/font&gt;" style="text;html=1;whiteSpace=wrap;strokeColor=none;fillColor=default;align=center;verticalAlign=middle;rounded=1;arcSize=50100;" vertex="1" parent="1">
          <mxGeometry x="354.5" y="500" width="10" height="10" as="geometry" />
        </mxCell>
        <mxCell id="QTDSs0XTfjrRyN60iktF-4" value="&lt;font style=&quot;font-size: 8px;&quot;&gt;3&lt;/font&gt;" style="text;html=1;whiteSpace=wrap;strokeColor=none;fillColor=default;align=center;verticalAlign=middle;rounded=1;arcSize=50100;" vertex="1" parent="1">
          <mxGeometry x="363" y="512" width="10" height="10" as="geometry" />
        </mxCell>
        <mxCell id="QTDSs0XTfjrRyN60iktF-5" value="&lt;font style=&quot;font-size: 8px;&quot;&gt;5&lt;/font&gt;" style="text;html=1;whiteSpace=wrap;strokeColor=none;fillColor=default;align=center;verticalAlign=middle;rounded=1;arcSize=50100;" vertex="1" parent="1">
          <mxGeometry x="303" y="533" width="10" height="10" as="geometry" />
        </mxCell>
      </root>
    </mxGraphModel>
  </diagram>
</mxfile>
